<?xml version="1.0" encoding="UTF-8" standalone="no"?>
<svg
   xmlns:dc="http://purl.org/dc/elements/1.1/"
   xmlns:cc="http://creativecommons.org/ns#"
   xmlns:rdf="http://www.w3.org/1999/02/22-rdf-syntax-ns#"
   xmlns:svg="http://www.w3.org/2000/svg"
   xmlns="http://www.w3.org/2000/svg"
   xmlns:sodipodi="http://sodipodi.sourceforge.net/DTD/sodipodi-0.dtd"
   xmlns:inkscape="http://www.inkscape.org/namespaces/inkscape"
   width="70.168671mm"
   height="52.627213mm"
   viewBox="0 0 70.168671 52.627213"
   version="1.1"
   id="svg8458"
   inkscape:version="1.0 (4035a4f, 2020-05-01)"
   sodipodi:docname="council-badge-white.svg">
  <defs
     id="defs8452" />
  <sodipodi:namedview
     id="base"
     pagecolor="#f09191"
     bordercolor="#666666"
     borderopacity="1.0"
     inkscape:pageopacity="1"
     inkscape:pageshadow="2"
     inkscape:zoom="2.0366561"
     inkscape:cx="129.73135"
     inkscape:cy="123.27379"
     inkscape:document-units="mm"
     inkscape:current-layer="g11618"
     inkscape:document-rotation="0"
     showgrid="false"
     fit-margin-top="5"
     fit-margin-left="5"
     fit-margin-right="5"
     fit-margin-bottom="5"
     inkscape:window-width="1188"
     inkscape:window-height="839"
     inkscape:window-x="40"
     inkscape:window-y="25"
     inkscape:window-maximized="0" />
  <metadata
     id="metadata8455">
    <rdf:RDF>
      <cc:Work
         rdf:about="">
        <dc:format>image/svg+xml</dc:format>
        <dc:type
           rdf:resource="http://purl.org/dc/dcmitype/StillImage" />
        <dc:title></dc:title>
      </cc:Work>
    </rdf:RDF>
  </metadata>
  <g
     inkscape:label="Layer 1"
     inkscape:groupmode="layer"
     id="layer1"
     transform="translate(-4.9811347,-9.2161502)">
    <g
       id="g11648"
       transform="matrix(0.13229167,0.22913589,-0.22913589,0.13229167,-3.4964167,-185.19486)"
       style="display:inline">
      <g
         id="g11708">
        <path
           sodipodi:nodetypes="ccccccccccccccccccc"
           d="m 908.91406,231.56958 -171.38867,0.0996 42.69727,74.1289 0.19922,0.19922 42.69921,73.93164 h 0.19727 z m -150.83008,12.1582 h 129.67774 l -64.83984,112.48047 -0.19727,-0.19922 -32.2207,-55.74609 v -0.19727 l -0.19727,-0.19726 -8.30273,-14.43164 v -0.19727 l -23.72266,-41.11719 -0.19727,-0.19726 z"
           style="font-variation-settings:normal;opacity:0.98;vector-effect:none;fill:#000000;fill-opacity:1;fill-rule:nonzero;stroke:#040404;stroke-width:1.742;stroke-linecap:round;stroke-linejoin:round;stroke-miterlimit:4;stroke-dasharray:none;stroke-dashoffset:0;stroke-opacity:1;marker:none;stop-color:#000000"
           id="path11568" />
        <path
           sodipodi:nodetypes="ccccccc"
           d="m 771.55416,251.70055 51.44394,90.47645 52.53897,-90.42632 -11.03711,-0.0762 -41.50186,71.54351 -39.81687,-71.59364 z"
           style="font-variation-settings:normal;opacity:0.98;vector-effect:none;fill:#000000;fill-opacity:1;fill-rule:nonzero;stroke:#000000;stroke-width:1.58802;stroke-linecap:round;stroke-linejoin:round;stroke-miterlimit:4;stroke-dasharray:none;stroke-dashoffset:0;stroke-opacity:1;marker:none;stop-color:#000000"
           id="path11570" />
      </g>
      <g
         id="g11608"
         style="display:inline;fill:#ffffff;stroke:none"
         transform="matrix(-0.31628745,-0.54782593,0.54782593,-0.31628745,560.93416,1031.3052)">
        <g
           style="color:#000000;display:inline;overflow:visible;visibility:visible;opacity:0.98;fill:#ffffff;fill-opacity:1;fill-rule:nonzero;stroke:none;stroke-width:1.8294;stroke-linecap:round;stroke-linejoin:round;stroke-miterlimit:4;stroke-dasharray:none;stroke-dashoffset:0;stroke-opacity:1;marker:none;enable-background:accumulate"
           transform="matrix(1.1732496,0,0,0.77284186,-143.94224,164.85749)"
           id="g11578">
          <g
             style="color:#000000;display:inline;overflow:visible;visibility:visible;fill:#ffffff;fill-opacity:1;fill-rule:nonzero;stroke:none;stroke-width:1.8294;stroke-linecap:round;stroke-linejoin:round;stroke-miterlimit:4;stroke-dasharray:none;stroke-dashoffset:0;stroke-opacity:1;marker:none;enable-background:accumulate"
             transform="translate(4.1821295e-8,1.4988169)"
             id="g11576">
            <path
               inkscape:connector-curvature="0"
               style="color:#000000;display:inline;overflow:visible;visibility:visible;fill:#ffffff;fill-opacity:1;fill-rule:nonzero;stroke:none;stroke-width:1.61451;stroke-linecap:round;stroke-linejoin:round;stroke-miterlimit:4;stroke-dasharray:none;stroke-dashoffset:0;stroke-opacity:1;marker:none;enable-background:accumulate"
               d="m 787.125,830.53125 v 17.78125 c 5.80164,-3.39496 17.71927,-4.88132 31.6875,-4.71875 l -0.125,-0.53125 c 0.2076,-0.003 0.41891,0.007 0.625,0 l -0.96875,-1.53125 -0.5,-2.125 0.5,-2.125 0.96875,-1.5 c -0.20609,-0.007 -0.4174,0.003 -0.625,0 l 0.125,-0.53125 c -13.96823,0.16257 -25.88586,-1.32379 -31.6875,-4.71875 z"
               transform="matrix(1,0,0,1.2839154,1.125,-238.83748)"
               id="path11572" />
            <path
               inkscape:connector-curvature="0"
               style="color:#000000;display:inline;overflow:visible;visibility:visible;opacity:0.98;fill:#ffffff;fill-opacity:1;fill-rule:nonzero;stroke:none;stroke-width:1.8294;stroke-linecap:round;stroke-linejoin:round;stroke-miterlimit:4;stroke-dasharray:none;stroke-dashoffset:0;stroke-opacity:1;marker:none;enable-background:accumulate"
               d="M 860.4375,827.49438 V 850.324 c -5.80164,-4.35884 -17.71927,-6.2672 -31.6875,-6.05847 l 0.125,-0.68208 c -0.2076,-0.004 -0.41891,0.009 -0.625,0 l 0.96875,-1.966 0.5,-2.72832 -0.5,-2.72832 -0.96875,-1.92587 c 0.20609,-0.009 0.4174,0.004 0.625,0 l -0.125,-0.68208 c 13.96823,0.20872 25.88586,-1.69964 31.6875,-6.05848 z"
               id="path11574" />
          </g>
        </g>
        <path
           sodipodi:nodetypes="ccccccccccccccc"
           inkscape:connector-curvature="0"
           id="path11580"
           d="m 820.6155,746.89615 0.084,2.09939 -1.67952,0.7138 c -6.95239,19.0828 -3.07431,39.82636 -1.21765,54.96215 -10e-4,3.67454 -7.88371,1.02993 -7.85173,4.24077 h 13.10022 l 0.16795,1.7635 0.16795,-1.7635 h 13.10022 c 0.032,-3.21084 -7.85052,-0.56623 -7.85173,-4.24077 1.85666,-15.13579 5.73474,-35.87935 -1.21765,-54.96215 l -1.67952,-0.7138 0.084,-2.09939 -2.60325,1.09168 z"
           style="color:#000000;display:inline;overflow:visible;visibility:visible;opacity:0.98;fill:#ffffff;fill-opacity:1;fill-rule:nonzero;stroke:none;stroke-width:1.742;stroke-linecap:round;stroke-linejoin:round;stroke-miterlimit:4;stroke-dasharray:none;stroke-dashoffset:0;stroke-opacity:1;marker:none;enable-background:accumulate" />
        <circle
           r="4.9841118"
           cy="780.99512"
           cx="820.16327"
           transform="matrix(1.3436125,0,0,1.3436125,-278.76289,-304.55672)"
           id="circle11582"
           style="color:#000000;display:inline;overflow:visible;visibility:visible;opacity:0.98;fill:#ffffff;fill-opacity:1;fill-rule:nonzero;stroke:none;stroke-width:1.2965;stroke-linecap:round;stroke-linejoin:round;stroke-miterlimit:4;stroke-dasharray:none;stroke-dashoffset:0;stroke-opacity:1;marker:none;enable-background:accumulate" />
        <path
           sodipodi:nodetypes="cccscccccccccccccc"
           inkscape:connector-curvature="0"
           id="path11584"
           d="m 815.60281,818.22677 0.0399,0.93635 h -0.0399 c 0.1433,3.49253 0.29403,6.92845 0.39874,10.29989 1.57065,50.57157 -0.76158,149.37279 6.85833,231.91459 l 0.0399,0.2497 h 0.0399 l 0.27912,-0.094 0.27912,0.094 h 0.0399 l 0.0399,-0.2497 c 7.61991,-82.5418 5.28768,-181.34302 6.85833,-231.91459 l 0.39874,-10.29989 h -0.0399 l 0.0399,-0.93635 -7.61594,0.46818 -7.61594,-0.46818 z"
           style="color:#000000;display:inline;overflow:visible;visibility:visible;opacity:0.98;fill:#ffffff;fill-opacity:1;fill-rule:nonzero;stroke:none;stroke-width:1.742;stroke-linecap:round;stroke-linejoin:round;stroke-miterlimit:4;stroke-dasharray:none;stroke-dashoffset:0;stroke-opacity:1;marker:none;enable-background:accumulate" />
        <rect
           transform="rotate(-45)"
           y="1145.3861"
           x="-6.1396103"
           height="25.11364"
           width="24.807375"
           id="rect11586"
           style="color:#000000;display:inline;overflow:visible;visibility:visible;opacity:0.98;fill:#ffffff;fill-opacity:1;fill-rule:nonzero;stroke:none;stroke-width:1.742;stroke-linecap:round;stroke-linejoin:round;stroke-miterlimit:4;stroke-dasharray:none;stroke-dashoffset:0;stroke-opacity:1;marker:none;enable-background:accumulate" />
        <rect
           transform="rotate(-90)"
           y="810.66193"
           x="-826.76367"
           height="25.11364"
           width="24.807375"
           id="rect11588"
           style="color:#000000;display:inline;overflow:visible;visibility:visible;opacity:0.98;fill:#ffffff;fill-opacity:1;fill-rule:nonzero;stroke:none;stroke-width:1.742;stroke-linecap:round;stroke-linejoin:round;stroke-miterlimit:4;stroke-dasharray:none;stroke-dashoffset:0;stroke-opacity:1;marker:none;enable-background:accumulate" />
        <g
           id="g11596"
           transform="matrix(1.1732496,0,0,0.77284186,-143.94224,164.85755)"
           style="color:#000000;display:inline;overflow:visible;visibility:visible;opacity:1;fill:#ffffff;fill-opacity:1;fill-rule:nonzero;stroke:#ffffff;stroke-width:6.27458536;stroke-linecap:round;stroke-linejoin:bevel;stroke-miterlimit:4;stroke-dasharray:none;stroke-dashoffset:0;stroke-opacity:1;marker:none;enable-background:accumulate">
          <g
             id="g11594"
             transform="translate(4.1821295e-8,1.4988169)"
             style="color:#000000;display:inline;overflow:visible;visibility:visible;fill:#000000;fill-opacity:1;fill-rule:nonzero;stroke:#080808;stroke-width:6.27458536;stroke-linecap:round;stroke-linejoin:bevel;stroke-miterlimit:4;stroke-dasharray:none;stroke-dashoffset:0;stroke-opacity:1;marker:none;enable-background:accumulate">
            <path
               id="path11590"
               transform="matrix(1,0,0,1.2839154,1.125,-238.83748)"
               d="m 787.125,830.53125 v 17.78125 c 5.80164,-3.39496 17.71927,-4.88132 31.6875,-4.71875 l -0.125,-0.53125 c 0.2076,-0.003 0.41891,0.007 0.625,0 l -0.96875,-1.53125 -0.5,-2.125 0.5,-2.125 0.96875,-1.5 c -0.20609,-0.007 -0.4174,0.003 -0.625,0 l 0.125,-0.53125 c -13.96823,0.16257 -25.88586,-1.32379 -31.6875,-4.71875 z"
               style="color:#000000;display:inline;overflow:visible;visibility:visible;fill:#000000;fill-opacity:1;fill-rule:nonzero;stroke:#080808;stroke-width:5.53753938;stroke-linecap:round;stroke-linejoin:bevel;stroke-miterlimit:4;stroke-dasharray:none;stroke-dashoffset:0;stroke-opacity:1;marker:none;enable-background:accumulate"
               inkscape:connector-curvature="0" />
            <path
               id="path11592"
               d="M 860.4375,827.49438 V 850.324 c -5.80164,-4.35884 -17.71927,-6.2672 -31.6875,-6.05847 l 0.125,-0.68208 c -0.2076,-0.004 -0.41891,0.009 -0.625,0 l 0.96875,-1.966 0.5,-2.72832 -0.5,-2.72832 -0.96875,-1.92587 c 0.20609,-0.009 0.4174,0.004 0.625,0 l -0.125,-0.68208 c 13.96823,0.20872 25.88586,-1.69964 31.6875,-6.05848 z"
               style="color:#000000;display:inline;overflow:visible;visibility:visible;opacity:0.98;fill:#000000;fill-opacity:1;fill-rule:nonzero;stroke:#080808;stroke-width:6.27458536;stroke-linecap:round;stroke-linejoin:bevel;stroke-miterlimit:4;stroke-dasharray:none;stroke-dashoffset:0;stroke-opacity:1;marker:none;enable-background:accumulate"
               inkscape:connector-curvature="0" />
          </g>
        </g>
        <path
           style="color:#000000;display:inline;overflow:visible;visibility:visible;opacity:0.98;fill:#000000;fill-opacity:1;fill-rule:nonzero;stroke:#000000;stroke-width:5.97483006;stroke-linecap:round;stroke-linejoin:round;stroke-miterlimit:4;stroke-dasharray:none;stroke-dashoffset:0;stroke-opacity:1;marker:none;enable-background:accumulate"
           d="m 820.61551,746.89622 0.084,2.09939 -1.67952,0.7138 c -6.95239,19.0828 -3.07431,39.82636 -1.21765,54.96215 -10e-4,3.67454 -7.88371,1.02993 -7.85173,4.24077 h 13.10022 l 0.16795,1.7635 0.16795,-1.7635 h 13.10022 c 0.032,-3.21084 -7.85052,-0.56623 -7.85173,-4.24077 1.85666,-15.13579 5.73474,-35.87935 -1.21765,-54.96215 l -1.67952,-0.7138 0.084,-2.09939 -2.60325,1.09168 z"
           id="path11598"
           inkscape:connector-curvature="0"
           sodipodi:nodetypes="ccccccccccccccc" />
        <circle
           r="4.9841118"
           cy="780.99512"
           cx="820.16327"
           style="color:#000000;display:inline;overflow:visible;visibility:visible;opacity:0.98;fill:#000000;fill-opacity:1;fill-rule:nonzero;stroke:#000000;stroke-width:4.44684019;stroke-linecap:round;stroke-linejoin:round;stroke-miterlimit:4;stroke-dasharray:none;stroke-dashoffset:0;stroke-opacity:1;marker:none;enable-background:accumulate"
           id="circle11600"
           transform="matrix(1.3436125,0,0,1.3436125,-278.76284,-304.55672)" />
        <path
           style="color:#000000;display:inline;overflow:visible;visibility:visible;opacity:0.98;fill:#ffffff;fill-opacity:1;fill-rule:nonzero;stroke:#000000;stroke-width:10.75469411;stroke-linecap:round;stroke-linejoin:round;stroke-miterlimit:4;stroke-dasharray:none;stroke-dashoffset:0;stroke-opacity:1;marker:none;enable-background:accumulate;paint-order:stroke markers fill"
           d="m 815.60282,818.22684 0.0399,0.93635 h -0.0399 c 0.1433,3.49253 0.29403,6.92845 0.39874,10.29989 1.57065,50.57156 -0.76158,237.36162 6.85833,319.90342 l 0.0399,0.2497 h 0.0399 l 0.27912,-0.094 0.27912,0.094 h 0.0399 l 0.0399,-0.2497 c 7.61991,-82.5418 5.28768,-269.33186 6.85833,-319.90342 l 0.39874,-10.29989 h -0.0399 l 0.0399,-0.93635 -7.61594,0.46818 -7.61594,-0.46818 z"
           id="path11602"
           inkscape:connector-curvature="0"
           sodipodi:nodetypes="cccscccccccccccccc" />
        <rect
           style="color:#000000;display:inline;overflow:visible;visibility:visible;opacity:0.98;fill:#ffffff;fill-opacity:1;fill-rule:nonzero;stroke:#ffffff;stroke-width:5.97483006;stroke-linecap:round;stroke-linejoin:miter;stroke-miterlimit:4;stroke-dasharray:none;stroke-dashoffset:0;stroke-opacity:1;marker:none;enable-background:accumulate"
           id="rect11604"
           width="24.807375"
           height="25.11364"
           x="-6.1396523"
           y="1145.3861"
           transform="rotate(-45)" />
        <rect
           style="color:#000000;display:inline;overflow:visible;visibility:visible;opacity:0.98;fill:#ffffff;fill-opacity:1;fill-rule:nonzero;stroke:#040404;stroke-width:5.97483;stroke-linecap:round;stroke-linejoin:miter;stroke-miterlimit:4;stroke-dasharray:none;stroke-dashoffset:0;stroke-opacity:1;marker:none;enable-background:accumulate"
           id="rect11606"
           width="24.807375"
           height="25.11364"
           x="-826.76373"
           y="810.66193"
           transform="rotate(-90)" />
      </g>
      <g
         id="g11618"
         transform="matrix(0.97595988,0,0,0.97595988,19.524716,5.6353224)">
        <path
           sodipodi:nodetypes="ccccccc"
           d="m 826.60074,223.70483 v 14.7894 l 22.19603,18.75806 -25.34106,50.22015 -25.53683,-50.02479 22.39349,-18.75807 v -14.98475"
           style="font-variation-settings:normal;opacity:1;vector-effect:none;fill:#ffffff;fill-opacity:1;fill-rule:nonzero;stroke:#000000;stroke-width:5.80893886;stroke-linecap:round;stroke-linejoin:round;stroke-miterlimit:4;stroke-dasharray:none;stroke-dashoffset:0;stroke-opacity:1;marker:none;stop-color:#000000;paint-order:stroke markers fill"
           id="path11610" />
        <path
           id="path11612"
           style="font-variation-settings:normal;opacity:0.98;vector-effect:none;fill:#000000;fill-opacity:1;fill-rule:nonzero;stroke:#0f0f0f;stroke-width:3.8726259;stroke-linecap:round;stroke-linejoin:round;stroke-miterlimit:4;stroke-dasharray:none;stroke-dashoffset:0;stroke-opacity:1;marker:none;stop-color:#000000;stop-opacity:1"
           d="m 832.56371,165.11231 -3.43966,55.26431 h -11.3313 l -3.43922,-55.46547 c 0,0 4.19121,-11.51379 9.10509,-11.49308 4.91388,0.0207 9.10509,11.69424 9.10509,11.69424 z"
           sodipodi:nodetypes="cccczc" />
        <path
           sodipodi:nodetypes="ccccc"
           d="m 814.13683,166.70676 18.64358,-0.0257 -0.28895,10.89592 -18.044,0.0257 z"
           style="color:#000000;font-variation-settings:normal;display:inline;overflow:visible;visibility:visible;opacity:1;vector-effect:none;fill:#f9f9f9;fill-opacity:1;fill-rule:nonzero;stroke:#000000;stroke-width:1.92082245;stroke-linecap:round;stroke-linejoin:round;stroke-miterlimit:4;stroke-dasharray:none;stroke-dashoffset:0;stroke-opacity:1;marker:none;enable-background:accumulate;stop-color:#000000;stop-opacity:1"
           id="path11614" />
        <path
           id="path11616"
           style="color:#000000;font-variation-settings:normal;display:inline;overflow:visible;visibility:visible;opacity:0.98;vector-effect:none;fill:#ffffff;fill-opacity:1;fill-rule:nonzero;stroke:#000000;stroke-width:1.92082245;stroke-linecap:round;stroke-linejoin:round;stroke-miterlimit:4;stroke-dasharray:none;stroke-dashoffset:0;stroke-opacity:1;marker:none;enable-background:accumulate;stop-color:#000000;stop-opacity:1"
           d="m 817.39962,218.91452 12.21776,-0.0243 -0.19767,8.44011 -11.88473,0.0243 z"
           sodipodi:nodetypes="ccccc" />
      </g>
    </g>
  </g>
</svg>
